<svg width="100%" height="100%" viewBox="0 0 800 450" fill="none" xmlns="http://www.w3.org/2000/svg">
<path d="M194.631 148.447L178.374 103.511C147.407 87.1702 130.762 79 128.44 79C126.117 79 110.247 83.9929 80.8287 93.9787C57.6036 113.043 45.604 124.617 44.8298 128.702C43.6686 134.83 39.0236 162.001 40.1848 171.533C41.3461 181.065 55.2811 211.023 57.6036 216.469C59.9261 221.916 95.9249 236.957 97.0862 238.319C97.8604 239.227 114.118 239.681 145.859 239.681L169.084 261.405C180.696 275.234 186.503 282.559 186.503 283.382C186.503 284.617 185.341 321.628 185.341 324.103C185.341 326.579 174.89 357.525 173.729 358.763C172.568 360.001 155.149 367.428 152.826 368.666C150.504 369.904 134.246 368.666 124.956 369.904C115.666 371.142 78.5061 360.001 77.3449 360.001C76.5707 360.001 67.6678 354.224 50.6361 342.671L238.759 227.425L244.565 289.416C243.017 301.483 242.63 307.517 243.404 307.517C244.565 307.517 249.21 342.671 250.371 342.671C251.146 342.671 256.178 348.448 265.468 360.001L301.467 303.494L302.628 281.371C315.015 253.577 321.595 239.227 322.369 238.319C323.143 237.411 339.014 257.795 369.98 299.472C391.657 296.79 402.883 296.79 403.657 299.472C404.818 303.494 428.043 299.472 429.204 299.472C430.366 299.472 431.527 291.427 431.527 281.371C431.527 271.315 414.108 245.127 409.463 245.127C404.818 245.127 376.948 245.127 375.787 245.127C375.013 245.127 369.98 253.857 360.69 271.315L347.917 297.461C351.013 315.222 352.949 324.103 353.723 324.103C354.497 324.103 359.916 330.293 369.98 342.671L399.012 351.336H414.927L482.622 192.021C477.203 211.993 475.267 222.886 476.816 224.702C478.364 226.518 484.944 227.879 496.557 228.787V201.491H488.428L483.783 350.098L474.493 342.671L479.138 253.298H495.396L490.751 342.671L569.716 141.638C566.619 183.314 565.458 204.626 566.232 205.576C567.393 207 580.167 249.213 579.006 249.213C577.845 249.213 570.877 251.496 569.716 261.405C568.555 271.315 569.716 295.45 568.555 307.517C567.393 319.584 567.393 334.006 568.555 342.671C569.329 348.448 572.813 324.662 579.006 271.315L647.52 181.065L566.232 239.681L617.327 324.103L588.296 239.681L649.842 352.574L651.004 249.213L675.39 253.298L669.584 350.098L657.971 342.671L668.422 224.702L687.002 207C680.809 201.511 677.325 198.767 676.551 198.767C675.777 198.767 669.971 199.675 659.132 201.491C657.584 207.928 657.584 212.034 659.132 213.808C661.455 216.469 677.712 219.318 677.712 221.979C677.712 223.753 693.196 267.284 724.162 352.574L736.936 368.666L750.871 350.098C750.097 340.195 748.936 334.831 747.387 334.006C745.065 332.768 735.775 324.103 734.614 324.103C733.84 324.103 731.517 330.293 727.646 342.671H734.614L749.71 143L738.097 147.023L729.969 289.416L746.226 291.427L759 148.447" stroke="white" stroke-width="12"/>
</svg>
