<svg width="100%" height="100%" viewBox="0 0 800 450" fill="none" xmlns="http://www.w3.org/2000/svg">
<path d="M73.9884 87.4521L62 172.052L64.1797 224.774C71.4454 272.182 75.0783 297.93 75.0783 302.017C75.0783 308.148 75.0783 367 75.0783 365.774C75.0783 364.956 77.219 324.087 81.5004 243.165C118.122 230.087 136.432 225.183 136.432 228.452C136.432 231.722 145.77 232.539 164.446 230.904C168.827 200.586 178.798 127.163 184.389 85V194.122C177.413 237.443 173.926 260.33 173.926 262.783C173.926 265.235 173.926 292.209 173.926 343.704L237.577 243.165L274.198 238.261L309.076 230.904C333.993 219.461 346.089 213.33 345.362 212.513C344.636 211.696 335.917 198.209 319.206 172.052L295.125 153.661C276.303 159.383 266.529 162.652 265.803 163.47C265.076 164.287 259.155 174.504 248.04 194.122L243.68 230.904C251.818 261.965 255.887 279.13 255.887 282.4C255.887 287.304 274.198 313.052 274.198 314.278C274.198 315.504 304.395 322.861 309.076 322.861C313.756 322.861 334.464 322.861 335.553 321.635C336.28 320.817 345.362 311.417 362.8 293.435L363.89 278.722L415.113 104.617L407.604 194.122C407.604 226.817 407.604 246.435 407.604 252.974C407.604 262.783 402.373 309.374 402.373 311.826C402.373 314.278 407.604 338.8 407.604 343.704C407.604 348.609 414.023 344.93 414.023 330.217C414.023 315.504 415.113 283.626 415.113 277.496C415.113 273.409 418.382 218.643 424.922 113.2L459.797 337.574C466.855 310.6 470.384 296.704 470.384 295.887C470.384 294.661 470.384 176.956 470.384 172.052C470.384 168.783 475.906 149.165 486.95 113.2C479.394 252.974 475.615 323.678 475.615 325.313C475.615 326.948 500.029 302.017 548.858 250.522V311.826L592.759 324.087C616.009 319.182 627.634 316.322 627.634 315.504C627.634 314.278 648.342 268.913 646.162 262.783C643.982 256.652 638.533 211.287 629.814 202.704C621.095 194.122 602.568 172.052 600.388 172.052C598.935 172.052 588.443 172.052 568.912 172.052C561.765 174.504 556.635 177.365 553.524 180.635C548.858 185.539 548.858 203.93 548.858 217.417C548.858 226.409 551.503 232.948 556.794 237.035L705.014 105.843L707.194 172.052L709.374 243.165L726.811 284.852C725.358 256.243 724.268 238.261 723.542 230.904C722.815 223.548 720.635 181.043 717.003 103.391L710.463 276.269C715.364 284.438 723.688 313.251 730.081 333.896L711.553 332.669L705.014 302.017L730.081 297.113C735.167 304.469 737.71 308.556 737.71 309.374C737.71 310.191 736.983 313.052 735.53 317.956" stroke="white" stroke-width="12"/>
</svg>
