<svg width="100%" height="100%" viewBox="0 0 800 450" fill="none" xmlns="http://www.w3.org/2000/svg">
<path d="M105.413 102L84.4872 206.217C76.9753 233.191 73.2194 249.539 73.2194 255.261C73.2194 260.983 72.1463 285.895 70 329.997L92.5357 214.8L160.143 223.383L210.043 110.583L174.63 214.8C179.995 249.948 182.142 267.522 181.069 267.522C179.459 267.522 168.191 320.943 168.191 326.375C168.191 329.997 195.019 300.979 248.676 239.322C244.383 276.922 242.773 295.722 243.847 295.722C245.456 295.722 274.431 322.753 276.04 322.753C277.65 322.753 303.405 322.754 316.283 319.132C329.16 315.51 351.696 295.722 354.915 295.722C358.134 295.722 372.622 262.617 372.622 255.261C372.622 247.904 364.573 222.156 361.354 207.443C358.135 192.73 345.257 173.113 340.428 173.113C335.599 173.113 311.453 160.852 309.844 160.852C308.234 160.852 288.918 163.304 287.308 168.209C285.698 173.113 261.553 179.243 259.943 192.73C258.334 206.217 251.895 220.93 251.895 223.383C251.895 225.017 323.258 191.913 465.984 124.07C466.325 120.645 467.13 155.287 467.593 182.922L462.764 206.217C459.545 228.287 457.935 240.139 457.935 241.774C457.935 243.409 459.545 261.391 462.764 295.722C458.472 331.852 457.399 349.313 459.545 348.106C462.764 346.295 475.642 299.419 475.642 286.535C475.642 277.947 477.788 226.652 482.081 132.652L488.519 245.452L557.736 326.375L593.149 313.699L626.953 251.583C617.295 223.791 609.783 209.487 604.417 208.669C596.369 207.443 577.052 206.217 572.223 206.217C567.394 206.217 544.859 220.93 543.249 223.383C541.639 225.835 533.591 273.652 531.981 273.652C530.908 273.652 536.274 281.009 548.078 295.722L623.733 286.535L643.05 320.943L636.611 267.522L649.488 337.241L715.486 132.652C710.12 216.026 707.437 258.53 707.437 260.165C707.437 261.8 712.803 262.617 723.534 262.617L729.973 132.652L721.924 147.365C714.413 258.167 710.657 310.593 710.657 304.644C710.657 298.696 706.901 301.714 699.389 313.699C699.389 322.15 699.389 326.979 699.389 328.186C699.389 329.393 704.754 331.204 715.486 333.619C725.144 323.961 729.973 317.924 729.973 315.51C729.973 313.095 729.436 306.499 728.363 295.722" stroke="white" stroke-width="12"/>
</svg>
