<svg width="100%" height="100%" viewBox="0 0 800 450" fill="none" xmlns="http://www.w3.org/2000/svg">
<path d="M162.241 147.156C161.215 144.641 145.813 122.003 142.732 118.231C140.679 115.715 123.908 108.589 92.4198 96.8508L46.2143 111.942L41.0804 145.898L38 217.583L63.6697 260.342L102.688 272.919L146.84 261.6C155.054 244.832 159.161 236.028 159.161 235.19C159.161 234.351 161.899 224.71 167.375 206.264C261.155 173.566 307.361 157.217 305.992 157.217C304.623 157.217 283.745 159.313 243.358 163.505L221.795 44.0305C230.009 146.318 234.117 197.88 234.117 198.719C234.117 199.557 232.405 227.225 228.983 281.722L204.34 243.993C201.602 316.936 200.233 353.826 200.233 354.664C200.233 355.503 207.42 356.341 221.795 357.18L264.92 358.437L289.563 345.861L305.992 332.027L415.858 96.8508L410.01 163.505V217.583L422.019 241.478L447.689 235.19H475.412L495.948 228.902L567.823 179.854L500.055 198.719C547.972 158.475 571.588 138.353 570.903 138.353C569.876 138.353 493.894 137.095 493.894 138.353C493.894 139.61 561.662 157.217 562.689 157.217C563.373 157.217 562.689 117.811 560.635 39L556.528 211.295L564.743 247.766L561.662 281.722L502.108 306.875C498.001 342.088 495.948 360.114 495.948 360.953C495.948 362.21 514.43 387.363 515.457 387.363C516.141 387.363 535.65 394.908 573.984 410L606.841 376.044C617.793 359.276 622.927 349.215 622.243 345.861C621.216 340.831 614.028 313.163 611.975 311.905C609.921 310.647 589.385 286.753 588.359 286.753C587.674 286.753 583.225 285.076 575.01 281.722L738.27 59.122L733.136 285.495L751.618 291.783L750.591 69.183L741.35 310.647C739.297 342.507 737.928 358.437 737.243 358.437C736.558 358.437 732.109 365.145 723.895 378.559L737.243 403.712L749.564 402.454C757.779 389.878 761.886 383.171 761.886 382.332C761.886 381.075 762.913 359.695 758.806 358.437C754.698 357.18 743.404 350.892 743.404 352.149" stroke="white" stroke-width="12"/>
</svg>
